<?xml version="1.0" encoding="utf-8"?>
<!-- Generator: Adobe Illustrator 27.9.1, SVG Export Plug-In . SVG Version: 6.00 Build 0)  -->
<svg version="1.1" id="Capa_1" xmlns="http://www.w3.org/2000/svg" xmlns:xlink="http://www.w3.org/1999/xlink" x="0px" y="0px"
	 viewBox="0 0 100 100" style="enable-background:new 0 0 100 100;" xml:space="preserve">
<style type="text/css">
	.st0{fill:#043356;}
	.st1{fill:#FFFFFF;}
	.st2{font-family:'ArialMT';}
	.st3{font-size:15px;}
	.st4{font-size:3px;}
	.st5{fill:none;stroke:#FFFFFF;stroke-miterlimit:10;}
	path:hover{
	   fill: #04203F;
	}
</style>
<path class="st0" d="M21.3,59.4V39.7h2c4.7,0,7.3,3.1,7.3,6.4v9l3,3.2V18c0-3.3,2-5.4,4.7-5.4s4.5,2.1,4.5,5.4v31.5h2.8V11.7
	c0-3.2,1.8-5.3,4.7-5.3c2.5,0,4.4,2.1,4.4,5.3v37.8h2.8V16.2c0-3.2,2.1-5.2,4.8-5.2c2.5,0,4.4,2.1,4.4,5.3l-0.1,33.2h2.8V21.4
	c0-3.3,2.2-5.3,4.4-5.3c2.7,0.1,4.9,2.3,4.8,5.1c0,0.1,0,0.1,0,0.2l-0.2,41.5c-0.1,20.7-10.9,30.7-27.7,30.7
	C32.9,93.6,21.3,80.4,21.3,59.4z"/>
<text transform="matrix(1 0 0 1 33.1331 75)" class="st1 st2 st3">PARE</text>
<text transform="matrix(1 0 0 1 5.5 35)" class="st1 st2 st4">MANO</text>
<path class="st5" d="M26.5,35.6c0,0-2.8-6.5-11.9-3.5"/>
</svg>
