<?xml version="1.0" encoding="utf-8"?>
<!-- Generator: Adobe Illustrator 27.9.1, SVG Export Plug-In . SVG Version: 6.00 Build 0)  -->
<svg version="1.1" id="Capa_1" xmlns="http://www.w3.org/2000/svg" xmlns:xlink="http://www.w3.org/1999/xlink" x="0px" y="0px"
	 viewBox="0 0 1080 401.2" style="enable-background:new 0 0 1080 401.2;" xml:space="preserve">
<style type="text/css">
	.st0{fill:#FFFFFF;}
	.st1{font-family:'LeituraDisplay-Roman';}
	.st2{font-size:52px;}
</style>
<g>
	<path class="st0" d="M317.7,188.5h-3.2v-4.9c1.6-0.6,2.6-2,2.6-3.6c0-2.1-3.7-17.4-3.7-17.4s-4,15.2-4,17.4c0,1.5,0.8,2.9,1.9,3.5
		v5h-2.7v5.4h9.1V188.5z"/>
	<path class="st0" d="M375.9,188.5h-3.2v-4.9c1.6-0.6,2.6-2,2.6-3.6c0-2.1-3.7-17.4-3.7-17.4s-4,15.2-4,17.4c0,1.5,0.8,2.9,1.9,3.5
		v5h-2.7v5.4h9.1V188.5z"/>
	<path class="st0" d="M442.6,127.7h-3.2v-4.9c1.6-0.6,2.6-2,2.6-3.6c0-2.1-3.7-17.4-3.7-17.4s-4,15.2-4,17.4c0,1.5,0.8,2.9,1.9,3.5
		v5h-2.7v5.4h9.1V127.7z"/>
	<path class="st0" d="M502.3,127.7h-3.2v-4.9c1.6-0.6,2.6-2,2.6-3.6c0-2.1-3.7-17.4-3.7-17.4s-4,15.2-4,17.4c0,1.5,0.8,2.9,1.9,3.5
		v5h-2.7v5.4h9.1V127.7z"/>
	<path class="st0" d="M259.6,188.5h-3.2v-4.9c1.6-0.6,2.6-2,2.6-3.6c0-2.1-3.7-17.4-3.7-17.4s-4,15.2-4,17.4c0,1.5,0.8,2.9,1.9,3.5
		v5h-2.7v5.4h9.1V188.5z"/>
	<path class="st0" d="M201.5,188.5h-3.2v-4.9c1.6-0.6,2.6-2,2.6-3.6c0-2.1-3.7-17.4-3.7-17.4s-4,15.2-4,17.4c0,1.5,0.8,2.9,1.9,3.5
		v5h-2.7v5.4h9.1V188.5z"/>
	<path class="st0" d="M144.5,188.5h-3.2v-4.9c1.6-0.6,2.6-2,2.6-3.6c0-2.1-3.7-17.4-3.7-17.4s-4,15.2-4,17.4c0,1.5,0.8,2.9,1.9,3.5
		v5h-2.7v5.4h9.1V188.5z"/>
	<path class="st0" d="M86.4,188.5h-3.2v-4.9c1.6-0.6,2.6-2,2.6-3.6c0-2.1-3.7-17.4-3.7-17.4s-4,15.2-4,17.4c0,1.5,0.8,2.9,1.9,3.5v5
		h-2.7v5.4h9.1V188.5z"/>
	<polygon class="st0" points="1014.1,224.1 1009,224.1 1009,199.9 1010.9,199.9 1011.2,199.9 1011.2,196.2 1011.2,196.1 1011.2,194 
		1010.9,194 656,194 656,179 656,165.5 659.5,165.5 659.8,165.5 659.8,156.3 659.5,156.3 656,156.3 656,138.6 659.5,138.6 
		659.8,138.6 659.8,133.2 659.5,133.2 540.6,133.2 540.3,133.2 540,133.2 421.1,133.2 421.1,138.6 424.9,138.6 424.9,156.3 
		421.1,156.3 421.1,165.5 424.9,165.5 424.9,179 424.9,194 69.7,194 69.7,196.1 69.7,196.2 69.7,199.9 71.9,199.9 71.9,224.1 
		66.5,224.1 66.5,238.6 66.5,256.4 66.5,330.7 66.5,352.1 66.5,352.2 96.6,352.2 96.6,352.1 124.6,352.1 124.6,352.2 154.7,352.2 
		154.7,352.1 182.2,352.1 182.2,352.2 212.3,352.2 212.3,352.1 240.3,352.1 240.3,352.2 270.4,352.2 270.4,352.1 298.4,352.1 
		298.4,352.2 328,352.2 328,352.1 356,352.1 356,352.2 386.1,352.2 386.1,352.1 424.9,352.1 424.9,352.2 451.3,352.2 451.3,352.1 
		489.4,352.1 489.4,352.2 515.8,352.2 515.8,352.1 540,352.1 540.3,352.1 540.6,352.1 564.8,352.1 564.8,352.2 565,352.2 
		591.2,352.2 591.4,352.2 591.4,352.1 629.4,352.1 629.4,352.2 629.6,352.2 655.8,352.2 656,352.2 656,352.1 694.5,352.1 
		694.5,352.2 694.7,352.2 724.6,352.2 724.8,352.2 724.8,352.1 752.6,352.1 752.6,352.2 752.8,352.2 782.2,352.2 782.4,352.2 
		782.4,352.1 810.2,352.1 810.2,352.2 810.4,352.2 840.3,352.2 840.5,352.2 840.5,352.1 868.3,352.1 868.3,352.2 868.5,352.2 
		898.4,352.2 898.6,352.2 898.6,352.1 925.8,352.1 925.8,352.2 926.1,352.2 955.9,352.2 956.2,352.2 956.2,352.1 984,352.1 
		984,352.2 984.2,352.2 1014.1,352.2 1014.3,352.2 1014.3,352.1 1014.4,352.1 1014.4,238.6 1014.4,224.1 	"/>
	<path class="st0" d="M771.9,193.9h0.3v-5.4h-0.3h-2.4v-5c0.2-0.1,0.3-0.2,0.5-0.4c1.1-0.7,1.7-1.9,1.7-3.1c0-2.2-3.8-17.4-3.8-17.4
		s-0.1,0.4-0.3,0.9c-0.2-0.6-0.2-0.9-0.2-0.9s-3.7,15.3-3.7,17.4c0,1.1,0.5,2.1,1.4,2.9c0.3,0.3,0.6,0.6,0.9,0.7v4.9h-2.9h-0.3v5.4
		h0.3H771.9z"/>
	<path class="st0" d="M713.7,193.9h0.4v-5.4h-0.4h-2.3v-5c0.3-0.2,0.6-0.4,0.8-0.6c0.9-0.7,1.3-1.8,1.3-2.9c0-2.2-3.8-17.4-3.8-17.4
		s-0.1,0.3-0.2,0.8c-0.1-0.5-0.2-0.8-0.2-0.8s-3.7,15.3-3.7,17.4c0,0.7,0.2,1.3,0.5,1.8c0.4,0.8,1.1,1.4,1.7,1.8v4.9H705h-0.4v5.4
		h0.4H713.7z"/>
	<path class="st0" d="M647.1,133.1h0.3v-5.4h-0.3h-2.4v-5c0.3-0.2,0.6-0.4,0.8-0.6c0.9-0.7,1.3-1.8,1.3-2.9c0-2.2-3.8-17.4-3.8-17.4
		s-0.1,0.3-0.2,0.8c-0.1-0.5-0.2-0.8-0.2-0.8s-3.7,15.3-3.7,17.4c0,0.7,0.2,1.3,0.5,1.8c0.4,0.8,1.1,1.4,1.7,1.8v4.9h-2.8H638v5.4
		h0.3H647.1z"/>
	<path class="st0" d="M587.3,133.1h0.4v-5.4h-0.4H585v-5c0.3-0.2,0.6-0.4,0.8-0.6c0.9-0.7,1.3-1.8,1.3-2.9c0-2.2-3.8-17.4-3.8-17.4
		s-0.1,0.3-0.2,0.8c-0.1-0.5-0.2-0.8-0.2-0.8s-3.7,15.3-3.7,17.4c0,0.7,0.2,1.3,0.5,1.8c0.4,0.8,1.1,1.4,1.7,1.8v4.9h-2.8h-0.4v5.4
		h0.4H587.3z"/>
	<path class="st0" d="M830,193.9h0.3v-5.4H830h-2.4v-5c0.2-0.1,0.3-0.2,0.5-0.4c1.1-0.7,1.7-1.9,1.7-3.1c0-2.2-3.8-17.4-3.8-17.4
		s-0.1,0.4-0.3,0.9c-0.2-0.6-0.2-0.9-0.2-0.9s-3.7,15.3-3.7,17.4c0,1.1,0.5,2.1,1.4,2.9c0.3,0.3,0.6,0.6,0.9,0.7v4.9h-2.9h-0.3v5.4
		h0.3H830z"/>
	<path class="st0" d="M888.1,193.9h0.4v-5.4h-0.4h-2.3v-5c0.3-0.2,0.6-0.4,0.8-0.6c0.9-0.7,1.3-1.8,1.3-2.9c0-2.2-3.8-17.4-3.8-17.4
		s-0.1,0.3-0.2,0.8c-0.1-0.5-0.2-0.8-0.2-0.8S880,177.9,880,180c0,0.7,0.2,1.3,0.5,1.8c0.4,0.8,1.1,1.4,1.7,1.8v4.9h-2.8H879v5.4
		h0.4H888.1z"/>
	<path class="st0" d="M945.1,193.9h0.4v-5.4h-0.4h-2.3v-5c0.3-0.2,0.6-0.4,0.8-0.6c0.9-0.7,1.3-1.8,1.3-2.9c0-2.2-3.8-17.4-3.8-17.4
		s-0.1,0.3-0.2,0.8c-0.1-0.5-0.2-0.8-0.2-0.8S937,177.9,937,180c0,0.7,0.2,1.3,0.5,1.8c0.4,0.8,1.1,1.4,1.7,1.8v4.9h-2.8H936v5.4
		h0.4H945.1z"/>
	<path class="st0" d="M1003.2,193.9h0.4v-5.4h-0.4h-2.3v-5c0.3-0.2,0.6-0.4,0.8-0.6c0.9-0.7,1.3-1.8,1.3-2.9
		c0-2.2-3.8-17.4-3.8-17.4s-0.1,0.3-0.2,0.8c-0.1-0.5-0.2-0.8-0.2-0.8s-3.7,15.3-3.7,17.4c0,0.7,0.2,1.3,0.5,1.8
		c0.4,0.8,1.1,1.4,1.7,1.8v4.9h-2.8h-0.4v5.4h0.4H1003.2z"/>
</g>
<g>
	<text transform="matrix(1 0 0 1 286.1386 64.1602)" class="st0 st1 st2">Palacio de La Moneda</text>
</g>
</svg>
